<?xml version="1.0" encoding="UTF-8" standalone="no"?>
<svg
   xmlns:dc="http://purl.org/dc/elements/1.1/"
   xmlns:cc="http://creativecommons.org/ns#"
   xmlns:rdf="http://www.w3.org/1999/02/22-rdf-syntax-ns#"
   xmlns:svg="http://www.w3.org/2000/svg"
   xmlns="http://www.w3.org/2000/svg"
   version="1.1"
   id="svg2"
   viewBox="0 0 30 30"
   height="30"
   width="30">
  <defs
     id="defs4" />
  <metadata
     id="metadata7">
    <rdf:RDF>
      <cc:Work
         rdf:about="">
        <dc:format>image/svg+xml</dc:format>
        <dc:type
           rdf:resource="http://purl.org/dc/dcmitype/StillImage" />
        <dc:title></dc:title>
      </cc:Work>
    </rdf:RDF>
  </metadata>
  <g
     transform="translate(0,-1022.3622)"
     id="layer1">
    <g
       style="fill:#db0404;fill-opacity:1"
       transform="translate(-0.01531861,-0.10460474)"
       id="g4147">
      <path
         id="path4151"
         d="m 0.75883487,1050.2145 c -1.64669996,-1.6467 -0.33379765,-5.4774 5.05713683,-14.7555 6.2674823,-10.7867 8.2119523,-12.7338 10.9999173,-11.0149 2.868492,1.7686 13.337193,20.5839 13.02558,23.4108 l -0.27558,2.5 -14.057054,0.2763 c -7.7313796,0.1519 -14.3688796,-0.036 -14.75000013,-0.4167 z M 24.82164,1043.6049 c -1.338862,-2.3375 -3.889647,-6.8375 -5.668413,-10 -1.778766,-3.1625 -3.608137,-5.75 -4.06527,-5.75 -0.457133,0 -2.281352,2.5875 -4.05382,5.75 -1.7724681,3.1625 -4.3331842,7.6625 -5.6904805,10 l -2.4678115,4.25 12.190044,0 12.190044,0 -2.434293,-4.25 z m -11.56538,0.5 c 0.437376,-2.2711 3.181882,-2.2711 3.619258,0 0.236462,1.2278 -0.30348,1.75 -1.809629,1.75 -1.506149,0 -2.046091,-0.5222 -1.809629,-1.75 z m 0.0048,-8 c 0.219493,-3.4201 0.7248,-4.75 1.804829,-4.75 1.080029,0 1.585336,1.3299 1.804791,4.75 0.273472,4.2619 0.08801,4.75 -1.804791,4.75 -1.892806,0 -2.078263,-0.4881 -1.804791,-4.75 z"
         style="fill:#db0404;fill-opacity:1" />
      <path
         id="path4149"
         d="m 1.2933299,1049.6823 c -0.67509276,-0.6751 -1.22744133,-1.6593 -1.22744133,-2.1871 0,-1.6807 12.44770343,-22.5852 13.75000043,-23.0915 2.50438,-0.9737 4.00086,0.7298 10.219664,11.634 4.884145,8.564 6.104426,11.4769 5.325915,12.7133 -0.825759,1.3114 -3.364864,1.6545 -13.925299,1.8813 -9.1954669,0.1976 -13.2689291,-0.076 -14.1428391,-0.95 z m 25.7725591,-2.5137 c 0,-1.3804 -11.138671,-20.3137 -11.950737,-20.3137 -0.813785,0 -12.0492634,18.9427 -12.0492634,20.3147 0,0.3769 5.4,0.6853 12.0000004,0.6853 6.6,0 12,-0.3088 12,-0.6863 z m -13,-2.8137 c 0,-0.825 0.45,-1.5 1,-1.5 0.55,0 1,0.675 1,1.5 0,0.825 -0.45,1.5 -1,1.5 -0.55,0 -1,-0.675 -1,-1.5 z m 0,-8 c 0,-2.475 0.45,-4.5 1,-4.5 0.55,0 1,2.025 1,4.5 0,2.475 -0.45,4.5 -1,4.5 -0.55,0 -1,-2.025 -1,-4.5 z"
         style="fill:#db0404;fill-opacity:1" />
    </g>
  </g>
</svg>
