<?xml version="1.0" encoding="UTF-8" standalone="no"?>
<!-- Created with Inkscape (http://www.inkscape.org/) -->

<svg
   xmlns:dc="http://purl.org/dc/elements/1.1/"
   xmlns:cc="http://creativecommons.org/ns#"
   xmlns:rdf="http://www.w3.org/1999/02/22-rdf-syntax-ns#"
   xmlns:svg="http://www.w3.org/2000/svg"
   xmlns="http://www.w3.org/2000/svg"
   xmlns:sodipodi="http://sodipodi.sourceforge.net/DTD/sodipodi-0.dtd"
   xmlns:inkscape="http://www.inkscape.org/namespaces/inkscape"
   width="30"
   height="30"
   viewBox="0 0 30 30"
   id="svg2"
   version="1.1"
   inkscape:version="0.91 r13725"
   sodipodi:docname="info-icon.svg"
   enable-background="new">
  <defs
     id="defs4">
    <filter
       inkscape:collect="always"
       style="color-interpolation-filters:sRGB"
       id="filter4518">
      <feBlend
         inkscape:collect="always"
         mode="multiply"
         in2="BackgroundImage"
         id="feBlend4520" />
    </filter>
  </defs>
  <sodipodi:namedview
     id="base"
     pagecolor="#ffffff"
     bordercolor="#666666"
     borderopacity="1.0"
     inkscape:pageopacity="0.0"
     inkscape:pageshadow="2"
     inkscape:zoom="11.2"
     inkscape:cx="6.2459752"
     inkscape:cy="12.155519"
     inkscape:document-units="px"
     inkscape:current-layer="layer1"
     showgrid="false"
     units="px"
     inkscape:window-width="1218"
     inkscape:window-height="621"
     inkscape:window-x="480"
     inkscape:window-y="204"
     inkscape:window-maximized="0" />
  <metadata
     id="metadata7">
    <rdf:RDF>
      <cc:Work
         rdf:about="">
        <dc:format>image/svg+xml</dc:format>
        <dc:type
           rdf:resource="http://purl.org/dc/dcmitype/StillImage" />
        <dc:title></dc:title>
      </cc:Work>
    </rdf:RDF>
  </metadata>
  <g
     inkscape:label="Calque 1"
     inkscape:groupmode="layer"
     id="layer1"
     transform="translate(0,-1022.3622)"
     style="opacity:0.99;filter:url(#filter4518)">
    <path
       style="fill:#000000"
       d=""
       id="path4406"
       inkscape:connector-curvature="0" />
    <path
       style="fill:#000000"
       d=""
       id="path4404"
       inkscape:connector-curvature="0" />
    <g
       id="g4356"
       transform="translate(0,-0.25253814)"
       style="" />
    <g
       id="g4463"
       style="fill:#696969;fill-opacity:0.99215686">
      <path
         style="fill-opacity:0.99215686;fill:#696969"
         d="m 10.15938,1034.2499 c 0,-0.4125 1.548442,-0.75 3.440983,-0.75 1.892541,0 3.649569,0.3375 3.904509,0.75 0.254939,0.4125 -1.293504,0.75 -3.440984,0.75 -2.147479,0 -3.904508,-0.3375 -3.904508,-0.75 z"
         id="path4467"
         inkscape:connector-curvature="0"
         sodipodi:nodetypes="sssss" />
      <path
         style="fill-opacity:0.99215686;fill:#696969"
         d="m 10.763702,1051.4615 c -7.0560362,-2.1115 -11.65714593,-10.4891 -9.6845357,-17.6333 3.1062635,-11.2499 17.2451827,-14.5991 24.8873057,-5.8952 7.105011,8.0921 3.487077,20.7237 -6.750246,23.5677 -4.0876,1.1355 -4.533857,1.1334 -8.452524,-0.039 z m 11.395678,-3.7877 c 3.653572,-2.6349 6.303652,-8.5149 5.495653,-12.1937 -2.874099,-13.0857 -21.0577001,-13.7478 -24.5191906,-0.8928 -2.94981911,10.9548 9.8091806,19.7319 19.0235376,13.0865 z m -9.907607,-1.5626 c -0.822487,-0.991 -0.873485,-2.6304 -0.178102,-5.7254 0.715815,-3.1858 0.657446,-4.5382 -0.219949,-5.096 -0.682917,-0.4341 0.228142,-0.7658 2.127614,-0.7746 l 3.321957,-0.015 -0.68718,5.5 c -0.491549,3.9342 -0.352889,5.5 0.487061,5.5 0.645832,0 0.896125,0.45 0.556206,1 -0.897824,1.4527 -4.068531,1.2248 -5.407607,-0.3887 z m 1.287609,-15.0634 c -0.703715,-1.8339 0.320486,-3.5479 2.119998,-3.5479 1.838916,0 2.647066,1.4532 1.896256,3.4098 -0.763279,1.989 -3.272859,2.0753 -4.016254,0.1381 z"
         id="path4465"
         inkscape:connector-curvature="0" />
    </g>
  </g>
</svg>
