<?xml version="1.0" encoding="UTF-8" standalone="no"?>
<!-- Created with Inkscape (http://www.inkscape.org/) -->

<svg
   xmlns:dc="http://purl.org/dc/elements/1.1/"
   xmlns:cc="http://creativecommons.org/ns#"
   xmlns:rdf="http://www.w3.org/1999/02/22-rdf-syntax-ns#"
   xmlns:svg="http://www.w3.org/2000/svg"
   xmlns="http://www.w3.org/2000/svg"
   xmlns:sodipodi="http://sodipodi.sourceforge.net/DTD/sodipodi-0.dtd"
   xmlns:inkscape="http://www.inkscape.org/namespaces/inkscape"
   width="30"
   height="30"
   viewBox="0 0 30 30"
   id="svg2"
   version="1.1"
   inkscape:version="0.91 r13725"
   sodipodi:docname="pin-icon.svg"
   enable-background="new">
  <defs
     id="defs4">
    <filter
       inkscape:collect="always"
       style="color-interpolation-filters:sRGB"
       id="filter4518">
      <feBlend
         inkscape:collect="always"
         mode="multiply"
         in2="BackgroundImage"
         id="feBlend4520" />
    </filter>
  </defs>
  <sodipodi:namedview
     id="base"
     pagecolor="#ffffff"
     bordercolor="#666666"
     borderopacity="1.0"
     inkscape:pageopacity="0.0"
     inkscape:pageshadow="2"
     inkscape:zoom="10.466667"
     inkscape:cx="8.3146075"
     inkscape:cy="11.180663"
     inkscape:document-units="px"
     inkscape:current-layer="layer1"
     showgrid="false"
     units="px"
     inkscape:window-width="1218"
     inkscape:window-height="621"
     inkscape:window-x="463"
     inkscape:window-y="376"
     inkscape:window-maximized="0" />
  <metadata
     id="metadata7">
    <rdf:RDF>
      <cc:Work
         rdf:about="">
        <dc:format>image/svg+xml</dc:format>
        <dc:type
           rdf:resource="http://purl.org/dc/dcmitype/StillImage" />
        <dc:title></dc:title>
      </cc:Work>
    </rdf:RDF>
  </metadata>
  <g
     inkscape:label="Calque 1"
     inkscape:groupmode="layer"
     id="layer1"
     transform="translate(0,-1022.3622)"
     style="opacity:0.99;filter:url(#filter4518)">
    <path
       style="fill:#000000"
       d=""
       id="path4406"
       inkscape:connector-curvature="0" />
    <path
       style="fill:#000000"
       d=""
       id="path4404"
       inkscape:connector-curvature="0" />
    <g
       id="g4356"
       transform="translate(0,-0.25253814)"
       style="" />
    <g
       id="g4601"
       transform="translate(-0.12626866,-0.25253815)">
      <path
         style="fill:#6b6b6b"
         d="m 8.0056139,1050.3039 c -3.9593025,-2.2949 -7.74178124,-8.5368 -7.74178124,-12.7758 0,-4.7676 3.88156644,-10.7643 8.37583274,-12.9399 5.3209296,-2.5758 7.9030136,-2.5876 13.1243526,-0.06 4.728127,2.2888 8.499815,8.0245 8.499815,12.9259 0,4.8654 -3.305685,10.3155 -7.782943,12.8319 -5.003091,2.8118 -9.644888,2.8176 -14.4752761,0.018 z m 15.8582191,-4.1758 c 2.994872,-2.9949 3.4,-4.0196 3.4,-8.6 0,-4.5804 -0.405128,-5.6051 -3.4,-8.6 -2.994872,-2.9949 -4.019608,-3.4 -8.6,-3.4 -4.580392,0 -5.6051285,0.4051 -8.6000003,3.4 -2.9948718,2.9949 -3.4,4.0196 -3.4,8.6 0,4.5804 0.4051282,5.6051 3.4,8.6 2.9948718,2.9949 4.0196083,3.4 8.6000003,3.4 4.580392,0 5.605128,-0.4051 8.6,-3.4 z M 9.52395,1042.4315 c 2.460043,-3.2253 2.553416,-3.6613 1.096169,-5.1185 -2.0158414,-2.0159 -0.8634874,-3.9945 2.1002,-3.6061 2.550477,0.3342 5.543514,-1.7181 5.543514,-3.8012 0,-2.0198 1.361257,-1.6864 3.825686,0.9369 2.515484,2.6776 2.733385,3.6855 0.796759,3.6855 -2.083101,0 -4.135445,2.993 -3.801221,5.5435 0.388373,2.9637 -1.59024,4.1161 -3.606082,2.1002 -1.457246,-1.4572 -1.89325,-1.3639 -5.118532,1.0962 l -3.5255969,2.6891 2.6891039,-3.5256 z"
         id="path4603"
         inkscape:connector-curvature="0" />
    </g>
  </g>
</svg>
